# xmcd CD database file
#
# Track frame offsets:
#	150
#	18857
#	33700
#	50522
#	68285
#	85315
#	100910
#	122385
#	137237
#	156025
#	170140
#
# Disc length: 2475 seconds
#
# Revision: 1
# Processed by: cddbd v1.5.2PL0 Copyright (c) Steve Scherf et al.
# Submitted via: CDex 1.51
#
DISCID=8909a90b
DTITLE=England Dan and John Ford Coley - Dr. Heckle And Mr. Jive
DYEAR=1979
DGENRE=Rock
TTITLE0=Hollywood Heckle and Jive
TTITLE1=What Can I Do With This Broken Heart
TTITLE2=Another Golden Oldie Night For Wendy
TTITLE3=Broken Hearted Me
TTITLE4=Children Of The Half Light
TTITLE5=Rolling Fever
TTITLE6=Love Is The Answer
TTITLE7=Only A Matter Of Time
TTITLE8=Caught Up In The Middle
TTITLE9=Running After You
TTITLE10=What's Forever For
EXTD=YEAR: 1979
EXTT0=
EXTT1=
EXTT2=
EXTT3=
EXTT4=
EXTT5=
EXTT6=
EXTT7=
EXTT8=
EXTT9=
EXTT10=
PLAYORDER=
